<svg id="Background" xmlns="http://www.w3.org/2000/svg" viewBox="0 0 98.8 98.8"><defs><style>.cls-1{fill:#1f1f1f;}</style></defs><title>logo</title><path class="cls-1" d="M7199.5,7150.1a49.4,49.4,0,1,0,49.4,49.4A49.39,49.39,0,0,0,7199.5,7150.1Zm30.38,44.62-1.71,3-11.06-6.31-14.23,8.2,14.23,8.2,11-6.36,1.76,3-9.31,5.34,9.31,5.39-1.71,2.95-9.35-5.39v10.78h-3.41v-12.72l-14.24-8.24V7219l11.06,6.36-1.71,3-9.35-5.34v10.73h-3.41v-10.73l-9.35,5.34-1.7-3,11-6.36v-16.44l-14.23,8.24v12.72h-3.46v-10.78l-9.3,5.39-1.71-2.95,9.31-5.39-9.31-5.34,1.71-3,11,6.36,14.28-8.2-14.28-8.2-11,6.31-1.71-3,9.31-5.34-9.31-5.4,1.71-2.94,9.3,5.34v-10.73h3.46v12.71l14.23,8.25v-16.5l-11-6.31,1.71-3,9.3,5.39v-10.74h3.41v10.74l9.31-5.39,1.7,3-11,6.31v16.5l14.24-8.25v-12.71h3.41v10.73l9.3-5.34,1.76,2.94-9.31,5.4Z" transform="translate(-7150.1 -7150.1)"/></svg>